<?xml version="1.0" encoding="UTF-8"?>
<svg id="Layer_2" data-name="Layer 2" xmlns="http://www.w3.org/2000/svg" viewBox="0 0 363.42 53.11">
  <defs>
    <style>
      .cls-1, .cls-2 {
        fill: none;
        stroke: #231f20;
        stroke-miterlimit: 10;
      }

      .cls-3 {
        fill: #fff;
      }

      .cls-2 {
        stroke-width: .5px;
      }
    </style>
  </defs>
  <g id="Layer_1-2" data-name="Layer 1">
    <g id="Layer_3" data-name="Layer 3">
      <g>
        <path class="cls-3" d="m354.92,52.61H8.5c0-4.13-3.58-7.48-8-7.48V7.98c4.42,0,8-3.35,8-7.48h346.42c0,4.13,3.58,7.48,8,7.48v37.14c-4.42,0-8,3.35-8,7.48Z"/>
        <path class="cls-1" d="m354.92,52.61H8.5c0-4.13-3.58-7.48-8-7.48V7.98c4.42,0,8-3.35,8-7.48h346.42c0,4.13,3.58,7.48,8,7.48v37.14c-4.42,0-8,3.35-8,7.48Z"/>
        <path class="cls-3" d="m354.92,52.61H8.5c0-4.13-3.58-7.48-8-7.48V7.98c4.42,0,8-3.35,8-7.48h346.42c0,4.13,3.58,7.48,8,7.48v37.14c-4.42,0-8,3.35-8,7.48Z"/>
        <path class="cls-3" d="m354.92,52.61H8.5c0-4.13-3.58-7.48-8-7.48V7.98c4.42,0,8-3.35,8-7.48h346.42c0,4.13,3.58,7.48,8,7.48v37.14c-4.42,0-8,3.35-8,7.48Z"/>
        <path class="cls-2" d="m354.92,52.61H8.5c0-4.13-3.58-7.48-8-7.48V7.98c4.42,0,8-3.35,8-7.48h346.42c0,4.13,3.58,7.48,8,7.48v37.14c-4.42,0-8,3.35-8,7.48Z"/>
      </g>
    </g>
    <g>
      <path class="cls-3" d="m348.48,45.17H14.94c0-2.95-3.45-5.35-7.7-5.35V13.28c4.25,0,7.7-2.39,7.7-5.35h333.54c0,2.95,3.45,5.35,7.7,5.35v26.54c-4.25,0-7.7,2.39-7.7,5.35Z"/>
      <path class="cls-1" d="m348.48,45.17H14.94c0-2.95-3.45-5.35-7.7-5.35V13.28c4.25,0,7.7-2.39,7.7-5.35h333.54c0,2.95,3.45,5.35,7.7,5.35v26.54c-4.25,0-7.7,2.39-7.7,5.35Z"/>
      <path class="cls-3" d="m348.48,45.17H14.94c0-2.95-3.45-5.35-7.7-5.35V13.28c4.25,0,7.7-2.39,7.7-5.35h333.54c0,2.95,3.45,5.35,7.7,5.35v26.54c-4.25,0-7.7,2.39-7.7,5.35Z"/>
      <path class="cls-3" d="m348.48,45.17H14.94c0-2.95-3.45-5.35-7.7-5.35V13.28c4.25,0,7.7-2.39,7.7-5.35h333.54c0,2.95,3.45,5.35,7.7,5.35v26.54c-4.25,0-7.7,2.39-7.7,5.35Z"/>
      <path class="cls-2" d="m348.48,45.17H14.94c0-2.95-3.45-5.35-7.7-5.35V13.28c4.25,0,7.7-2.39,7.7-5.35h333.54c0,2.95,3.45,5.35,7.7,5.35v26.54c-4.25,0-7.7,2.39-7.7,5.35Z"/>
    </g>
  </g>
</svg>